<mxfile host="app.diagrams.net" modified="2024-03-07T20:29:32.054Z" agent="Mozilla/5.0 (Windows NT 10.0; Win64; x64) AppleWebKit/537.36 (KHTML, like Gecko) Chrome/122.0.0.0 Safari/537.36" etag="D9OCuV0X5VY4J6MsBMH2" version="24.0.2" type="device">
  <diagram name="‫עמוד-1‬" id="7i7Y-nr80FA066HKyIcE">
    <mxGraphModel dx="1461" dy="1768" grid="1" gridSize="10" guides="1" tooltips="1" connect="1" arrows="1" fold="1" page="1" pageScale="1" pageWidth="827" pageHeight="1169" math="0" shadow="0">
      <root>
        <mxCell id="0" />
        <mxCell id="1" parent="0" />
        <mxCell id="w0JepZCaxSTiiSYlm3w5-1" value="2 קלוט שני שלמים והצג את כל השלמים ביניהם )כולל( בסדר עולה.&lt;br&gt;לא מובטח שהנתון השני גדול מהראשון.&lt;br&gt;." style="text;whiteSpace=wrap;html=1;" vertex="1" parent="1">
          <mxGeometry x="180" y="-1070" width="410" height="80" as="geometry" />
        </mxCell>
        <mxCell id="w0JepZCaxSTiiSYlm3w5-2" value="קלוט מספרים אי-שליליים עד הזקיף )ערך סיום קלט( -99 והצג את סכומם." style="text;whiteSpace=wrap;html=1;" vertex="1" parent="1">
          <mxGeometry x="165" y="585" width="370" height="40" as="geometry" />
        </mxCell>
        <mxCell id="w0JepZCaxSTiiSYlm3w5-3" value="&lt;span style=&quot;color: rgb(0, 0, 0); font-family: Helvetica; font-size: 12px; font-style: normal; font-variant-ligatures: normal; font-variant-caps: normal; font-weight: 400; letter-spacing: normal; orphans: 2; text-align: left; text-indent: 0px; text-transform: none; widows: 2; word-spacing: 0px; -webkit-text-stroke-width: 0px; white-space: normal; background-color: rgb(251, 251, 251); text-decoration-thickness: initial; text-decoration-style: initial; text-decoration-color: initial; display: inline !important; float: none;&quot;&gt;.3 קלוט מספר טבעי n.&lt;/span&gt;&lt;br style=&quot;color: rgb(0, 0, 0); font-family: Helvetica; font-size: 12px; font-style: normal; font-variant-ligatures: normal; font-variant-caps: normal; font-weight: 400; letter-spacing: normal; orphans: 2; text-align: left; text-indent: 0px; text-transform: none; widows: 2; word-spacing: 0px; -webkit-text-stroke-width: 0px; white-space: normal; background-color: rgb(251, 251, 251); text-decoration-thickness: initial; text-decoration-style: initial; text-decoration-color: initial;&quot;&gt;&lt;span style=&quot;color: rgb(0, 0, 0); font-family: Helvetica; font-size: 12px; font-style: normal; font-variant-ligatures: normal; font-variant-caps: normal; font-weight: 400; letter-spacing: normal; orphans: 2; text-align: left; text-indent: 0px; text-transform: none; widows: 2; word-spacing: 0px; -webkit-text-stroke-width: 0px; white-space: normal; background-color: rgb(251, 251, 251); text-decoration-thickness: initial; text-decoration-style: initial; text-decoration-color: initial; display: inline !important; float: none;&quot;&gt;הצג את כל המספרים הזוגיים מ- 0 עד n( כולל אם הוא זוגי(. לא מובטח ש- n זוגי&lt;/span&gt;" style="text;whiteSpace=wrap;html=1;" vertex="1" parent="1">
          <mxGeometry x="180" y="-340" width="400" height="50" as="geometry" />
        </mxCell>
        <mxCell id="w0JepZCaxSTiiSYlm3w5-4" value="ex.2" style="text;strokeColor=#d6b656;fillColor=#fff2cc;align=left;verticalAlign=middle;spacingLeft=4;spacingRight=4;overflow=hidden;points=[[0,0.5],[1,0.5]];portConstraint=eastwest;rotatable=0;whiteSpace=wrap;html=1;" vertex="1" parent="1">
          <mxGeometry x="50" y="-1075" width="80" height="30" as="geometry" />
        </mxCell>
        <mxCell id="w0JepZCaxSTiiSYlm3w5-5" value="&lt;font style=&quot;font-size: 23px;&quot;&gt;&lt;b&gt;page 27&lt;/b&gt;&lt;/font&gt;" style="text;html=1;align=center;verticalAlign=middle;whiteSpace=wrap;rounded=0;fillColor=#e1d5e7;strokeColor=#9673a6;" vertex="1" parent="1">
          <mxGeometry x="30" y="-1110" width="100" height="30" as="geometry" />
        </mxCell>
        <mxCell id="w0JepZCaxSTiiSYlm3w5-6" value="start" style="strokeWidth=2;html=1;shape=mxgraph.flowchart.terminator;whiteSpace=wrap;" vertex="1" parent="1">
          <mxGeometry x="278.13" y="-1010" width="93.75" height="60" as="geometry" />
        </mxCell>
        <mxCell id="w0JepZCaxSTiiSYlm3w5-7" value="" style="verticalLabelPosition=bottom;verticalAlign=top;html=1;shape=card;whiteSpace=wrap;size=20;arcSize=12;" vertex="1" parent="1">
          <mxGeometry x="275" y="-920" width="100" height="60" as="geometry" />
        </mxCell>
        <mxCell id="w0JepZCaxSTiiSYlm3w5-8" value="num1,&lt;br&gt;num2" style="text;html=1;align=center;verticalAlign=middle;whiteSpace=wrap;rounded=0;" vertex="1" parent="1">
          <mxGeometry x="295.01" y="-905" width="60" height="30" as="geometry" />
        </mxCell>
        <mxCell id="w0JepZCaxSTiiSYlm3w5-9" style="edgeStyle=orthogonalEdgeStyle;rounded=0;orthogonalLoop=1;jettySize=auto;html=1;entryX=0.5;entryY=0;entryDx=0;entryDy=0;entryPerimeter=0;" edge="1" parent="1" source="w0JepZCaxSTiiSYlm3w5-6" target="w0JepZCaxSTiiSYlm3w5-7">
          <mxGeometry relative="1" as="geometry" />
        </mxCell>
        <mxCell id="w0JepZCaxSTiiSYlm3w5-10" value="num1&amp;gt;num2" style="strokeWidth=2;html=1;shape=mxgraph.flowchart.decision;whiteSpace=wrap;" vertex="1" parent="1">
          <mxGeometry x="275" y="-830" width="100" height="100" as="geometry" />
        </mxCell>
        <mxCell id="w0JepZCaxSTiiSYlm3w5-11" style="edgeStyle=orthogonalEdgeStyle;rounded=0;orthogonalLoop=1;jettySize=auto;html=1;entryX=0.5;entryY=0;entryDx=0;entryDy=0;entryPerimeter=0;" edge="1" parent="1" source="w0JepZCaxSTiiSYlm3w5-7" target="w0JepZCaxSTiiSYlm3w5-10">
          <mxGeometry relative="1" as="geometry" />
        </mxCell>
        <mxCell id="w0JepZCaxSTiiSYlm3w5-14" value="num2&amp;lt;=num1" style="strokeWidth=2;html=1;shape=mxgraph.flowchart.start_2;whiteSpace=wrap;" vertex="1" parent="1">
          <mxGeometry x="165" y="-730" width="100" height="100" as="geometry" />
        </mxCell>
        <mxCell id="w0JepZCaxSTiiSYlm3w5-20" style="edgeStyle=orthogonalEdgeStyle;rounded=0;orthogonalLoop=1;jettySize=auto;html=1;" edge="1" parent="1" source="w0JepZCaxSTiiSYlm3w5-15">
          <mxGeometry relative="1" as="geometry">
            <mxPoint x="215" y="-410" as="targetPoint" />
          </mxGeometry>
        </mxCell>
        <mxCell id="w0JepZCaxSTiiSYlm3w5-15" value="num2 = num2 + 1" style="rounded=1;whiteSpace=wrap;html=1;" vertex="1" parent="1">
          <mxGeometry x="155" y="-510" width="120" height="60" as="geometry" />
        </mxCell>
        <mxCell id="w0JepZCaxSTiiSYlm3w5-19" style="edgeStyle=orthogonalEdgeStyle;rounded=0;orthogonalLoop=1;jettySize=auto;html=1;entryX=0.5;entryY=0;entryDx=0;entryDy=0;" edge="1" parent="1" source="w0JepZCaxSTiiSYlm3w5-16" target="w0JepZCaxSTiiSYlm3w5-15">
          <mxGeometry relative="1" as="geometry" />
        </mxCell>
        <mxCell id="w0JepZCaxSTiiSYlm3w5-16" value="num2" style="strokeWidth=2;html=1;shape=mxgraph.flowchart.document2;whiteSpace=wrap;size=0.25;" vertex="1" parent="1">
          <mxGeometry x="165" y="-600" width="100" height="60" as="geometry" />
        </mxCell>
        <mxCell id="w0JepZCaxSTiiSYlm3w5-17" value="" style="shape=link;html=1;rounded=0;" edge="1" parent="1">
          <mxGeometry width="100" relative="1" as="geometry">
            <mxPoint x="165" y="-410" as="sourcePoint" />
            <mxPoint x="265" y="-410" as="targetPoint" />
          </mxGeometry>
        </mxCell>
        <mxCell id="w0JepZCaxSTiiSYlm3w5-18" style="edgeStyle=orthogonalEdgeStyle;rounded=0;orthogonalLoop=1;jettySize=auto;html=1;entryX=0.5;entryY=0;entryDx=0;entryDy=0;entryPerimeter=0;" edge="1" parent="1" source="w0JepZCaxSTiiSYlm3w5-14" target="w0JepZCaxSTiiSYlm3w5-16">
          <mxGeometry relative="1" as="geometry" />
        </mxCell>
        <mxCell id="w0JepZCaxSTiiSYlm3w5-21" style="edgeStyle=orthogonalEdgeStyle;rounded=0;orthogonalLoop=1;jettySize=auto;html=1;entryX=0.5;entryY=0;entryDx=0;entryDy=0;entryPerimeter=0;" edge="1" parent="1" source="w0JepZCaxSTiiSYlm3w5-10" target="w0JepZCaxSTiiSYlm3w5-14">
          <mxGeometry relative="1" as="geometry" />
        </mxCell>
        <mxCell id="w0JepZCaxSTiiSYlm3w5-22" value="stop" style="strokeWidth=2;html=1;shape=mxgraph.flowchart.terminator;whiteSpace=wrap;" vertex="1" parent="1">
          <mxGeometry x="291.88" y="-650" width="80" height="40" as="geometry" />
        </mxCell>
        <mxCell id="w0JepZCaxSTiiSYlm3w5-23" style="edgeStyle=orthogonalEdgeStyle;rounded=0;orthogonalLoop=1;jettySize=auto;html=1;entryX=0.5;entryY=0;entryDx=0;entryDy=0;entryPerimeter=0;" edge="1" parent="1" source="w0JepZCaxSTiiSYlm3w5-14" target="w0JepZCaxSTiiSYlm3w5-22">
          <mxGeometry relative="1" as="geometry" />
        </mxCell>
        <mxCell id="w0JepZCaxSTiiSYlm3w5-24" value="num1&amp;lt;=num2" style="strokeWidth=2;html=1;shape=mxgraph.flowchart.start_2;whiteSpace=wrap;" vertex="1" parent="1">
          <mxGeometry x="408.12" y="-730.5" width="100" height="100" as="geometry" />
        </mxCell>
        <mxCell id="w0JepZCaxSTiiSYlm3w5-25" style="edgeStyle=orthogonalEdgeStyle;rounded=0;orthogonalLoop=1;jettySize=auto;html=1;" edge="1" parent="1" source="w0JepZCaxSTiiSYlm3w5-26">
          <mxGeometry relative="1" as="geometry">
            <mxPoint x="458.12" y="-410.5" as="targetPoint" />
          </mxGeometry>
        </mxCell>
        <mxCell id="w0JepZCaxSTiiSYlm3w5-26" value="num1= num1 + 1" style="rounded=1;whiteSpace=wrap;html=1;" vertex="1" parent="1">
          <mxGeometry x="398.12" y="-510.5" width="120" height="60" as="geometry" />
        </mxCell>
        <mxCell id="w0JepZCaxSTiiSYlm3w5-27" style="edgeStyle=orthogonalEdgeStyle;rounded=0;orthogonalLoop=1;jettySize=auto;html=1;entryX=0.5;entryY=0;entryDx=0;entryDy=0;" edge="1" parent="1" source="w0JepZCaxSTiiSYlm3w5-28" target="w0JepZCaxSTiiSYlm3w5-26">
          <mxGeometry relative="1" as="geometry" />
        </mxCell>
        <mxCell id="w0JepZCaxSTiiSYlm3w5-28" value="num1" style="strokeWidth=2;html=1;shape=mxgraph.flowchart.document2;whiteSpace=wrap;size=0.25;" vertex="1" parent="1">
          <mxGeometry x="408.12" y="-600.5" width="100" height="60" as="geometry" />
        </mxCell>
        <mxCell id="w0JepZCaxSTiiSYlm3w5-29" value="" style="shape=link;html=1;rounded=0;" edge="1" parent="1">
          <mxGeometry width="100" relative="1" as="geometry">
            <mxPoint x="408.12" y="-410.5" as="sourcePoint" />
            <mxPoint x="508.12" y="-410.5" as="targetPoint" />
          </mxGeometry>
        </mxCell>
        <mxCell id="w0JepZCaxSTiiSYlm3w5-30" style="edgeStyle=orthogonalEdgeStyle;rounded=0;orthogonalLoop=1;jettySize=auto;html=1;entryX=0.5;entryY=0;entryDx=0;entryDy=0;entryPerimeter=0;" edge="1" parent="1" source="w0JepZCaxSTiiSYlm3w5-24" target="w0JepZCaxSTiiSYlm3w5-28">
          <mxGeometry relative="1" as="geometry" />
        </mxCell>
        <mxCell id="w0JepZCaxSTiiSYlm3w5-31" value="stop" style="strokeWidth=2;html=1;shape=mxgraph.flowchart.terminator;whiteSpace=wrap;" vertex="1" parent="1">
          <mxGeometry x="535" y="-650.5" width="80" height="40" as="geometry" />
        </mxCell>
        <mxCell id="w0JepZCaxSTiiSYlm3w5-32" style="edgeStyle=orthogonalEdgeStyle;rounded=0;orthogonalLoop=1;jettySize=auto;html=1;entryX=0.5;entryY=0;entryDx=0;entryDy=0;entryPerimeter=0;" edge="1" parent="1" source="w0JepZCaxSTiiSYlm3w5-24" target="w0JepZCaxSTiiSYlm3w5-31">
          <mxGeometry relative="1" as="geometry" />
        </mxCell>
        <mxCell id="w0JepZCaxSTiiSYlm3w5-33" style="edgeStyle=orthogonalEdgeStyle;rounded=0;orthogonalLoop=1;jettySize=auto;html=1;entryX=0.5;entryY=0;entryDx=0;entryDy=0;entryPerimeter=0;" edge="1" parent="1" source="w0JepZCaxSTiiSYlm3w5-10" target="w0JepZCaxSTiiSYlm3w5-24">
          <mxGeometry relative="1" as="geometry" />
        </mxCell>
        <mxCell id="w0JepZCaxSTiiSYlm3w5-34" value="ex.3" style="text;strokeColor=#d6b656;fillColor=#fff2cc;align=left;verticalAlign=middle;spacingLeft=4;spacingRight=4;overflow=hidden;points=[[0,0.5],[1,0.5]];portConstraint=eastwest;rotatable=0;whiteSpace=wrap;html=1;" vertex="1" parent="1">
          <mxGeometry x="30" y="-360" width="80" height="30" as="geometry" />
        </mxCell>
        <mxCell id="w0JepZCaxSTiiSYlm3w5-35" value="start" style="strokeWidth=2;html=1;shape=mxgraph.flowchart.terminator;whiteSpace=wrap;" vertex="1" parent="1">
          <mxGeometry x="278.13" y="-280" width="93.75" height="60" as="geometry" />
        </mxCell>
        <mxCell id="w0JepZCaxSTiiSYlm3w5-62" style="edgeStyle=orthogonalEdgeStyle;rounded=0;orthogonalLoop=1;jettySize=auto;html=1;entryX=0.5;entryY=0;entryDx=0;entryDy=0;" edge="1" parent="1" source="w0JepZCaxSTiiSYlm3w5-36" target="w0JepZCaxSTiiSYlm3w5-61">
          <mxGeometry relative="1" as="geometry" />
        </mxCell>
        <mxCell id="w0JepZCaxSTiiSYlm3w5-36" value="" style="verticalLabelPosition=bottom;verticalAlign=top;html=1;shape=card;whiteSpace=wrap;size=20;arcSize=12;" vertex="1" parent="1">
          <mxGeometry x="275" y="-190" width="100" height="60" as="geometry" />
        </mxCell>
        <mxCell id="w0JepZCaxSTiiSYlm3w5-37" value="num1" style="text;html=1;align=center;verticalAlign=middle;whiteSpace=wrap;rounded=0;" vertex="1" parent="1">
          <mxGeometry x="295.01" y="-175" width="60" height="30" as="geometry" />
        </mxCell>
        <mxCell id="w0JepZCaxSTiiSYlm3w5-38" style="edgeStyle=orthogonalEdgeStyle;rounded=0;orthogonalLoop=1;jettySize=auto;html=1;entryX=0.5;entryY=0;entryDx=0;entryDy=0;entryPerimeter=0;" edge="1" parent="1" source="w0JepZCaxSTiiSYlm3w5-35" target="w0JepZCaxSTiiSYlm3w5-36">
          <mxGeometry relative="1" as="geometry" />
        </mxCell>
        <mxCell id="w0JepZCaxSTiiSYlm3w5-74" style="edgeStyle=orthogonalEdgeStyle;rounded=0;orthogonalLoop=1;jettySize=auto;html=1;entryX=0.5;entryY=0;entryDx=0;entryDy=0;" edge="1" parent="1" source="w0JepZCaxSTiiSYlm3w5-39" target="w0JepZCaxSTiiSYlm3w5-64">
          <mxGeometry relative="1" as="geometry" />
        </mxCell>
        <mxCell id="w0JepZCaxSTiiSYlm3w5-39" value="num1%2 ==0" style="strokeWidth=2;html=1;shape=mxgraph.flowchart.decision;whiteSpace=wrap;" vertex="1" parent="1">
          <mxGeometry x="275" width="100" height="100" as="geometry" />
        </mxCell>
        <mxCell id="w0JepZCaxSTiiSYlm3w5-41" value="index&amp;lt;=num1" style="strokeWidth=2;html=1;shape=mxgraph.flowchart.start_2;whiteSpace=wrap;" vertex="1" parent="1">
          <mxGeometry x="165" y="100" width="100" height="100" as="geometry" />
        </mxCell>
        <mxCell id="w0JepZCaxSTiiSYlm3w5-42" style="edgeStyle=orthogonalEdgeStyle;rounded=0;orthogonalLoop=1;jettySize=auto;html=1;" edge="1" parent="1" source="w0JepZCaxSTiiSYlm3w5-43">
          <mxGeometry relative="1" as="geometry">
            <mxPoint x="215" y="420" as="targetPoint" />
          </mxGeometry>
        </mxCell>
        <mxCell id="w0JepZCaxSTiiSYlm3w5-43" value="index = index +2" style="rounded=1;whiteSpace=wrap;html=1;" vertex="1" parent="1">
          <mxGeometry x="155" y="320" width="120" height="60" as="geometry" />
        </mxCell>
        <mxCell id="w0JepZCaxSTiiSYlm3w5-44" style="edgeStyle=orthogonalEdgeStyle;rounded=0;orthogonalLoop=1;jettySize=auto;html=1;entryX=0.5;entryY=0;entryDx=0;entryDy=0;" edge="1" parent="1" source="w0JepZCaxSTiiSYlm3w5-45" target="w0JepZCaxSTiiSYlm3w5-43">
          <mxGeometry relative="1" as="geometry" />
        </mxCell>
        <mxCell id="w0JepZCaxSTiiSYlm3w5-45" value="index" style="strokeWidth=2;html=1;shape=mxgraph.flowchart.document2;whiteSpace=wrap;size=0.25;" vertex="1" parent="1">
          <mxGeometry x="165" y="230" width="100" height="60" as="geometry" />
        </mxCell>
        <mxCell id="w0JepZCaxSTiiSYlm3w5-46" value="" style="shape=link;html=1;rounded=0;" edge="1" parent="1">
          <mxGeometry width="100" relative="1" as="geometry">
            <mxPoint x="165" y="420" as="sourcePoint" />
            <mxPoint x="265" y="420" as="targetPoint" />
          </mxGeometry>
        </mxCell>
        <mxCell id="w0JepZCaxSTiiSYlm3w5-47" style="edgeStyle=orthogonalEdgeStyle;rounded=0;orthogonalLoop=1;jettySize=auto;html=1;entryX=0.5;entryY=0;entryDx=0;entryDy=0;entryPerimeter=0;" edge="1" parent="1" source="w0JepZCaxSTiiSYlm3w5-41" target="w0JepZCaxSTiiSYlm3w5-45">
          <mxGeometry relative="1" as="geometry" />
        </mxCell>
        <mxCell id="w0JepZCaxSTiiSYlm3w5-48" style="edgeStyle=orthogonalEdgeStyle;rounded=0;orthogonalLoop=1;jettySize=auto;html=1;entryX=0.5;entryY=0;entryDx=0;entryDy=0;entryPerimeter=0;" edge="1" parent="1" source="w0JepZCaxSTiiSYlm3w5-39" target="w0JepZCaxSTiiSYlm3w5-41">
          <mxGeometry relative="1" as="geometry" />
        </mxCell>
        <mxCell id="w0JepZCaxSTiiSYlm3w5-49" value="stop" style="strokeWidth=2;html=1;shape=mxgraph.flowchart.terminator;whiteSpace=wrap;" vertex="1" parent="1">
          <mxGeometry x="291.88" y="180" width="80" height="40" as="geometry" />
        </mxCell>
        <mxCell id="w0JepZCaxSTiiSYlm3w5-50" style="edgeStyle=orthogonalEdgeStyle;rounded=0;orthogonalLoop=1;jettySize=auto;html=1;entryX=0.5;entryY=0;entryDx=0;entryDy=0;entryPerimeter=0;" edge="1" parent="1" source="w0JepZCaxSTiiSYlm3w5-41" target="w0JepZCaxSTiiSYlm3w5-49">
          <mxGeometry relative="1" as="geometry" />
        </mxCell>
        <mxCell id="w0JepZCaxSTiiSYlm3w5-61" value="index = 0" style="rounded=1;whiteSpace=wrap;html=1;" vertex="1" parent="1">
          <mxGeometry x="265" y="-100" width="120" height="60" as="geometry" />
        </mxCell>
        <mxCell id="w0JepZCaxSTiiSYlm3w5-63" style="edgeStyle=orthogonalEdgeStyle;rounded=0;orthogonalLoop=1;jettySize=auto;html=1;entryX=0.5;entryY=0;entryDx=0;entryDy=0;entryPerimeter=0;" edge="1" parent="1" source="w0JepZCaxSTiiSYlm3w5-61" target="w0JepZCaxSTiiSYlm3w5-39">
          <mxGeometry relative="1" as="geometry" />
        </mxCell>
        <mxCell id="w0JepZCaxSTiiSYlm3w5-64" value="num1 = num1 - 1" style="rounded=1;whiteSpace=wrap;html=1;" vertex="1" parent="1">
          <mxGeometry x="385" y="90" width="120" height="60" as="geometry" />
        </mxCell>
        <mxCell id="w0JepZCaxSTiiSYlm3w5-65" value="index&amp;lt;=num1" style="strokeWidth=2;html=1;shape=mxgraph.flowchart.start_2;whiteSpace=wrap;" vertex="1" parent="1">
          <mxGeometry x="395" y="180" width="100" height="100" as="geometry" />
        </mxCell>
        <mxCell id="w0JepZCaxSTiiSYlm3w5-66" style="edgeStyle=orthogonalEdgeStyle;rounded=0;orthogonalLoop=1;jettySize=auto;html=1;" edge="1" parent="1" source="w0JepZCaxSTiiSYlm3w5-67">
          <mxGeometry relative="1" as="geometry">
            <mxPoint x="445" y="500" as="targetPoint" />
          </mxGeometry>
        </mxCell>
        <mxCell id="w0JepZCaxSTiiSYlm3w5-67" value="index = index +2" style="rounded=1;whiteSpace=wrap;html=1;" vertex="1" parent="1">
          <mxGeometry x="385" y="400" width="120" height="60" as="geometry" />
        </mxCell>
        <mxCell id="w0JepZCaxSTiiSYlm3w5-68" style="edgeStyle=orthogonalEdgeStyle;rounded=0;orthogonalLoop=1;jettySize=auto;html=1;entryX=0.5;entryY=0;entryDx=0;entryDy=0;" edge="1" parent="1" source="w0JepZCaxSTiiSYlm3w5-69" target="w0JepZCaxSTiiSYlm3w5-67">
          <mxGeometry relative="1" as="geometry" />
        </mxCell>
        <mxCell id="w0JepZCaxSTiiSYlm3w5-69" value="index" style="strokeWidth=2;html=1;shape=mxgraph.flowchart.document2;whiteSpace=wrap;size=0.25;" vertex="1" parent="1">
          <mxGeometry x="395" y="310" width="100" height="60" as="geometry" />
        </mxCell>
        <mxCell id="w0JepZCaxSTiiSYlm3w5-70" value="" style="shape=link;html=1;rounded=0;" edge="1" parent="1">
          <mxGeometry width="100" relative="1" as="geometry">
            <mxPoint x="395" y="500" as="sourcePoint" />
            <mxPoint x="495" y="500" as="targetPoint" />
          </mxGeometry>
        </mxCell>
        <mxCell id="w0JepZCaxSTiiSYlm3w5-71" style="edgeStyle=orthogonalEdgeStyle;rounded=0;orthogonalLoop=1;jettySize=auto;html=1;entryX=0.5;entryY=0;entryDx=0;entryDy=0;entryPerimeter=0;" edge="1" parent="1" source="w0JepZCaxSTiiSYlm3w5-65" target="w0JepZCaxSTiiSYlm3w5-69">
          <mxGeometry relative="1" as="geometry" />
        </mxCell>
        <mxCell id="w0JepZCaxSTiiSYlm3w5-72" value="stop" style="strokeWidth=2;html=1;shape=mxgraph.flowchart.terminator;whiteSpace=wrap;" vertex="1" parent="1">
          <mxGeometry x="530" y="270" width="80" height="40" as="geometry" />
        </mxCell>
        <mxCell id="w0JepZCaxSTiiSYlm3w5-75" style="edgeStyle=orthogonalEdgeStyle;rounded=0;orthogonalLoop=1;jettySize=auto;html=1;entryX=0.5;entryY=0;entryDx=0;entryDy=0;entryPerimeter=0;" edge="1" parent="1" source="w0JepZCaxSTiiSYlm3w5-64" target="w0JepZCaxSTiiSYlm3w5-65">
          <mxGeometry relative="1" as="geometry" />
        </mxCell>
        <mxCell id="w0JepZCaxSTiiSYlm3w5-76" style="edgeStyle=orthogonalEdgeStyle;rounded=0;orthogonalLoop=1;jettySize=auto;html=1;entryX=0.5;entryY=0;entryDx=0;entryDy=0;entryPerimeter=0;" edge="1" parent="1" source="w0JepZCaxSTiiSYlm3w5-65" target="w0JepZCaxSTiiSYlm3w5-72">
          <mxGeometry relative="1" as="geometry" />
        </mxCell>
        <mxCell id="w0JepZCaxSTiiSYlm3w5-77" value="ex.5" style="text;strokeColor=#d6b656;fillColor=#fff2cc;align=left;verticalAlign=middle;spacingLeft=4;spacingRight=4;overflow=hidden;points=[[0,0.5],[1,0.5]];portConstraint=eastwest;rotatable=0;whiteSpace=wrap;html=1;" vertex="1" parent="1">
          <mxGeometry x="30" y="570" width="80" height="30" as="geometry" />
        </mxCell>
        <mxCell id="w0JepZCaxSTiiSYlm3w5-78" value="start" style="strokeWidth=2;html=1;shape=mxgraph.flowchart.terminator;whiteSpace=wrap;" vertex="1" parent="1">
          <mxGeometry x="323.13" y="630" width="93.75" height="60" as="geometry" />
        </mxCell>
        <mxCell id="w0JepZCaxSTiiSYlm3w5-79" style="edgeStyle=orthogonalEdgeStyle;rounded=0;orthogonalLoop=1;jettySize=auto;html=1;entryX=0.5;entryY=0;entryDx=0;entryDy=0;" edge="1" parent="1" source="w0JepZCaxSTiiSYlm3w5-80" target="w0JepZCaxSTiiSYlm3w5-83">
          <mxGeometry relative="1" as="geometry" />
        </mxCell>
        <mxCell id="w0JepZCaxSTiiSYlm3w5-80" value="" style="verticalLabelPosition=bottom;verticalAlign=top;html=1;shape=card;whiteSpace=wrap;size=20;arcSize=12;" vertex="1" parent="1">
          <mxGeometry x="320" y="720" width="100" height="60" as="geometry" />
        </mxCell>
        <mxCell id="w0JepZCaxSTiiSYlm3w5-81" value="num1" style="text;html=1;align=center;verticalAlign=middle;whiteSpace=wrap;rounded=0;" vertex="1" parent="1">
          <mxGeometry x="340.01" y="735" width="60" height="30" as="geometry" />
        </mxCell>
        <mxCell id="w0JepZCaxSTiiSYlm3w5-82" style="edgeStyle=orthogonalEdgeStyle;rounded=0;orthogonalLoop=1;jettySize=auto;html=1;entryX=0.5;entryY=0;entryDx=0;entryDy=0;entryPerimeter=0;" edge="1" parent="1" source="w0JepZCaxSTiiSYlm3w5-78" target="w0JepZCaxSTiiSYlm3w5-80">
          <mxGeometry relative="1" as="geometry" />
        </mxCell>
        <mxCell id="w0JepZCaxSTiiSYlm3w5-83" value="sum= 0" style="rounded=1;whiteSpace=wrap;html=1;" vertex="1" parent="1">
          <mxGeometry x="310" y="810" width="120" height="60" as="geometry" />
        </mxCell>
        <mxCell id="w0JepZCaxSTiiSYlm3w5-99" style="edgeStyle=orthogonalEdgeStyle;rounded=0;orthogonalLoop=1;jettySize=auto;html=1;entryX=0.5;entryY=0;entryDx=0;entryDy=0;" edge="1" parent="1" source="w0JepZCaxSTiiSYlm3w5-84" target="w0JepZCaxSTiiSYlm3w5-86">
          <mxGeometry relative="1" as="geometry" />
        </mxCell>
        <mxCell id="w0JepZCaxSTiiSYlm3w5-101" style="edgeStyle=orthogonalEdgeStyle;rounded=0;orthogonalLoop=1;jettySize=auto;html=1;entryX=0.5;entryY=0;entryDx=0;entryDy=0;" edge="1" parent="1" source="w0JepZCaxSTiiSYlm3w5-84" target="w0JepZCaxSTiiSYlm3w5-100">
          <mxGeometry relative="1" as="geometry" />
        </mxCell>
        <mxCell id="w0JepZCaxSTiiSYlm3w5-84" value="num1 != -99" style="strokeWidth=2;html=1;shape=mxgraph.flowchart.start_2;whiteSpace=wrap;" vertex="1" parent="1">
          <mxGeometry x="320" y="920" width="100" height="100" as="geometry" />
        </mxCell>
        <mxCell id="w0JepZCaxSTiiSYlm3w5-86" value="sum = sum + num1" style="rounded=1;whiteSpace=wrap;html=1;" vertex="1" parent="1">
          <mxGeometry x="310.01" y="1060" width="120" height="60" as="geometry" />
        </mxCell>
        <mxCell id="w0JepZCaxSTiiSYlm3w5-89" value="" style="shape=link;html=1;rounded=0;" edge="1" parent="1">
          <mxGeometry width="100" relative="1" as="geometry">
            <mxPoint x="320" y="1240" as="sourcePoint" />
            <mxPoint x="420" y="1240" as="targetPoint" />
          </mxGeometry>
        </mxCell>
        <mxCell id="w0JepZCaxSTiiSYlm3w5-91" value="stop" style="strokeWidth=2;html=1;shape=mxgraph.flowchart.terminator;whiteSpace=wrap;" vertex="1" parent="1">
          <mxGeometry x="470" y="1120" width="80" height="40" as="geometry" />
        </mxCell>
        <mxCell id="w0JepZCaxSTiiSYlm3w5-93" style="edgeStyle=orthogonalEdgeStyle;rounded=0;orthogonalLoop=1;jettySize=auto;html=1;entryX=0.5;entryY=0;entryDx=0;entryDy=0;entryPerimeter=0;" edge="1" parent="1" source="w0JepZCaxSTiiSYlm3w5-83" target="w0JepZCaxSTiiSYlm3w5-84">
          <mxGeometry relative="1" as="geometry" />
        </mxCell>
        <mxCell id="w0JepZCaxSTiiSYlm3w5-98" style="edgeStyle=orthogonalEdgeStyle;rounded=0;orthogonalLoop=1;jettySize=auto;html=1;" edge="1" parent="1" source="w0JepZCaxSTiiSYlm3w5-95">
          <mxGeometry relative="1" as="geometry">
            <mxPoint x="370.01" y="1240" as="targetPoint" />
          </mxGeometry>
        </mxCell>
        <mxCell id="w0JepZCaxSTiiSYlm3w5-95" value="" style="verticalLabelPosition=bottom;verticalAlign=top;html=1;shape=card;whiteSpace=wrap;size=20;arcSize=12;" vertex="1" parent="1">
          <mxGeometry x="320.01" y="1150" width="100" height="60" as="geometry" />
        </mxCell>
        <mxCell id="w0JepZCaxSTiiSYlm3w5-96" value="num1" style="text;html=1;align=center;verticalAlign=middle;whiteSpace=wrap;rounded=0;" vertex="1" parent="1">
          <mxGeometry x="340.02" y="1165" width="60" height="30" as="geometry" />
        </mxCell>
        <mxCell id="w0JepZCaxSTiiSYlm3w5-97" style="edgeStyle=orthogonalEdgeStyle;rounded=0;orthogonalLoop=1;jettySize=auto;html=1;entryX=0.5;entryY=0;entryDx=0;entryDy=0;entryPerimeter=0;" edge="1" parent="1" target="w0JepZCaxSTiiSYlm3w5-95">
          <mxGeometry relative="1" as="geometry">
            <mxPoint x="370.01" y="1120" as="sourcePoint" />
          </mxGeometry>
        </mxCell>
        <mxCell id="w0JepZCaxSTiiSYlm3w5-100" value="sum" style="shape=document;whiteSpace=wrap;html=1;boundedLbl=1;" vertex="1" parent="1">
          <mxGeometry x="460" y="1020" width="100" height="60" as="geometry" />
        </mxCell>
        <mxCell id="w0JepZCaxSTiiSYlm3w5-102" style="edgeStyle=orthogonalEdgeStyle;rounded=0;orthogonalLoop=1;jettySize=auto;html=1;entryX=0.5;entryY=0;entryDx=0;entryDy=0;entryPerimeter=0;" edge="1" parent="1" source="w0JepZCaxSTiiSYlm3w5-100" target="w0JepZCaxSTiiSYlm3w5-91">
          <mxGeometry relative="1" as="geometry" />
        </mxCell>
      </root>
    </mxGraphModel>
  </diagram>
</mxfile>
